Coordinates
version=1
nRows=30
nColumns=38
inDegrees=no

Units are S.I. units (second, meters, Newtons, ...)
If the header above contains a line with 'inDegrees', this indicates whether rotational values are in degrees (yes) or radians (no).

endheader
time	pelvis_tilt	pelvis_list	pelvis_rotation	pelvis_tx	pelvis_ty	pelvis_tz	hip_flexion_r	hip_adduction_r	hip_rotation_r	knee_angle_r	ankle_angle_r	subtalar_angle_r	mtp_angle_r	hip_flexion_l	hip_adduction_l	hip_rotation_l	knee_angle_l	ankle_angle_l	subtalar_angle_l	mtp_angle_l	lumbar_extension	lumbar_bending	lumbar_rotation	arm_flex_r	arm_add_r	arm_rot_r	elbow_flex_r	pro_sup_r	wrist_flex_r	wrist_dev_r	arm_flex_l	arm_add_l	arm_rot_l	elbow_flex_l	pro_sup_l	wrist_flex_l	wrist_dev_l
0	1.56661	1.46465	0.0587285	0.497483	-0.458416	0.927049	0.541332	0.0697594	-0.319754	0.221891	0.0240174	0	0	-0.128541	-0.0995136	-0.29912	0.407429	0.352785	0	0	-0.127794	0.0522944	-0.194066	-0.199399	-0.0285049	-0.36835	0.477148	0.947365	0	0	-0.0302306	-0.456611	0.451788	0.732324	0.821868	0	0
0.01	1.52073	1.46183	0.11375	0.497386	-0.448922	0.925878	0.538211	0.0742555	-0.326018	0.218796	0.0255103	0	0	-0.122512	-0.108212	-0.293108	0.427498	0.355077	0	0	-0.1199	0.0539452	-0.199585	-0.205318	-0.026416	-0.371656	0.481341	0.946212	0	0	-0.0270708	-0.457294	0.464083	0.729074	0.814859	0	0
0.02	1.48386	1.4584	0.158672	0.497401	-0.438976	0.924902	0.532338	0.0805219	-0.329457	0.214085	0.0274782	0	0	-0.118032	-0.11748	-0.288126	0.446871	0.355841	0	0	-0.112131	0.0562556	-0.205633	-0.21171	-0.0254299	-0.371788	0.487013	0.937777	0	0	-0.0274255	-0.457164	0.471305	0.726807	0.809386	0	0
0.03	1.45039	1.45489	0.199604	0.497454	-0.428736	0.924069	0.525083	0.0875744	-0.329869	0.208999	0.0293026	0	0	-0.11389	-0.126682	-0.282594	0.466164	0.354648	0	0	-0.104036	0.0587074	-0.211484	-0.218647	-0.0250274	-0.371237	0.492118	0.931724	0	0	-0.0291395	-0.456718	0.477786	0.724545	0.80381	0	0
0.04	1.41928	1.4512	0.237403	0.497542	-0.418196	0.923328	0.517241	0.0953403	-0.327612	0.205178	0.0309871	0	0	-0.109877	-0.135956	-0.276574	0.485752	0.351667	0	0	-0.0956412	0.0615616	-0.216051	-0.227032	-0.0250453	-0.37074	0.499245	0.924597	0	0	-0.0314692	-0.455627	0.484003	0.722141	0.797826	0	0
0.05	1.38773	1.4477	0.274621	0.497714	-0.407384	0.922614	0.510143	0.103137	-0.322179	0.205076	0.0330981	0	0	-0.105559	-0.14493	-0.270636	0.505895	0.347263	0	0	-0.0867126	0.0641665	-0.219082	-0.237055	-0.0255533	-0.369118	0.507402	0.916892	0	0	-0.034823	-0.45446	0.489577	0.720607	0.792803	0	0
0.06	1.35614	1.44431	0.310933	0.497934	-0.396335	0.921935	0.503352	0.111134	-0.311512	0.20756	0.0345253	0	0	-0.100721	-0.153735	-0.264821	0.526992	0.341892	0	0	-0.0772579	0.0665174	-0.22148	-0.247278	-0.0270276	-0.363661	0.513957	0.902588	0	0	-0.0397894	-0.452963	0.493091	0.719509	0.789328	0	0
0.07	1.33004	1.44171	0.340719	0.498166	-0.385018	0.921351	0.496075	0.118822	-0.296786	0.213142	0.0370582	0	0	-0.0968698	-0.161457	-0.258535	0.547818	0.334442	0	0	-0.0687014	0.0684669	-0.222616	-0.256548	-0.0273743	-0.368381	0.518623	0.90611	0	0	-0.0455895	-0.450821	0.494159	0.718488	0.788993	0	0
0.08	1.30652	1.4384	0.368046	0.498393	-0.373485	0.920739	0.4879	0.12789	-0.278595	0.216738	0.0413462	0	0	-0.0911549	-0.170835	-0.252782	0.572343	0.325134	0	0	-0.0596498	0.0712991	-0.223926	-0.266992	-0.0280729	-0.373154	0.525395	0.907642	0	0	-0.052318	-0.448566	0.49511	0.717694	0.788102	0	0
0.09	1.28708	1.43446	0.39115	0.498617	-0.361739	0.920144	0.477623	0.138686	-0.257157	0.21348	0.0460585	0	0	-0.0841114	-0.181522	-0.247251	0.599518	0.313138	0	0	-0.0504337	0.0751327	-0.224987	-0.278164	-0.0291102	-0.377922	0.533216	0.907676	0	0	-0.0596766	-0.445983	0.495925	0.716596	0.787334	0	0
0.1	1.27141	1.42951	0.409909	0.498908	-0.34992	0.919572	0.466214	0.151166	-0.232463	0.202824	0.0426543	0	0	-0.0750368	-0.193833	-0.241951	0.629891	0.298655	0	0	-0.0411063	0.0803124	-0.2253	-0.289396	-0.030501	-0.382375	0.541198	0.906647	0	0	-0.0669494	-0.442791	0.496695	0.714238	0.78692	0	0
0.11	1.26025	1.42358	0.422957	0.499395	-0.338185	0.919085	0.456029	0.164101	-0.20791	0.190646	0.0241259	0	0	-0.0635793	-0.20781	-0.23713	0.663823	0.2809	0	0	-0.0320237	0.0866012	-0.224597	-0.299834	-0.0322621	-0.385617	0.548335	0.90474	0	0	-0.0741986	-0.439214	0.496621	0.710938	0.78674	0	0
0.12	1.25182	1.4167	0.431245	0.500125	-0.326691	0.918687	0.451103	0.176093	-0.187423	0.187425	-0.00340744	0	0	-0.0488664	-0.223284	-0.232859	0.702173	0.258757	0	0	-0.0239737	0.0941739	-0.221605	-0.309302	-0.0343432	-0.388143	0.555053	0.902469	0	0	-0.080561	-0.435247	0.495915	0.706986	0.78679	0	0
0.13	1.24466	1.40931	0.43587	0.501026	-0.315506	0.91842	0.454894	0.185813	-0.175331	0.202319	-0.0230707	0	0	-0.0307278	-0.23897	-0.227419	0.744689	0.231041	0	0	-0.0171843	0.102687	-0.216318	-0.317256	-0.0369099	-0.389772	0.56094	0.899882	0	0	-0.0861057	-0.43086	0.494678	0.702617	0.786903	0	0
0.14	1.21454	1.4015	0.461733	0.501913	-0.304659	0.917829	0.474676	0.189907	-0.177624	0.243122	-0.0222608	0	0	-0.00332876	-0.25253	-0.218586	0.793859	0.195823	0	0	-0.00650486	0.110081	-0.210691	-0.327575	-0.0426119	-0.374802	0.571479	0.861955	0	0	-0.092869	-0.425634	0.49127	0.698106	0.786432	0	0
0.15	1.22618	1.39804	0.446184	0.502429	-0.293703	0.918126	0.483047	0.192275	-0.179392	0.281255	-0.0190953	0	0	0.0149662	-0.262084	-0.204769	0.839044	0.157375	0	0	-0.00577311	0.116957	-0.205347	-0.332545	-0.0462574	-0.373379	0.575464	0.856718	0	0	-0.0987296	-0.421528	0.489498	0.696118	0.785122	0	0
0.16	1.23087	1.39508	0.440613	0.502519	-0.282979	0.918247	0.492552	0.190363	-0.190889	0.320313	-0.0169863	0	0	0.0401077	-0.269113	-0.183634	0.889657	0.113595	0	0	-0.00382931	0.122876	-0.203452	-0.33823	-0.0496974	-0.372053	0.581152	0.852572	0	0	-0.104576	-0.421521	0.501373	0.700476	0.7401	0	0
0.17	1.25277	1.39304	0.419009	0.502404	-0.272292	0.918676	0.492194	0.189411	-0.200501	0.346878	-0.0230047	0	0	0.063883	-0.275069	-0.159609	0.940608	0.0697012	0	0	-0.00598898	0.129514	-0.203109	-0.341917	-0.0529662	-0.371813	0.584972	0.849698	0	0	-0.111105	-0.419097	0.502142	0.702531	0.730614	0	0
0.18	1.27725	1.39094	0.395506	0.502358	-0.261808	0.919113	0.486206	0.189897	-0.209457	0.363211	-0.0307964	0	0	0.0896813	-0.28053	-0.134381	0.992735	0.0258682	0	0	-0.00895703	0.136116	-0.203415	-0.345581	-0.0556214	-0.371594	0.589679	0.847295	0	0	-0.117283	-0.417888	0.504576	0.705722	0.720993	0	0
0.19	1.29763	1.38768	0.37646	0.502545	-0.25158	0.919445	0.476934	0.193195	-0.217263	0.370345	-0.0368901	0	0	0.119008	-0.286667	-0.108956	1.04594	-0.0178111	0	0	-0.0106668	0.143091	-0.204044	-0.349965	-0.0574977	-0.371404	0.596267	0.84443	0	0	-0.122662	-0.418018	0.510553	0.708879	0.710008	0	0
0.2	1.31351	1.38398	0.361194	0.502939	-0.241608	0.919741	0.465516	0.199047	-0.222635	0.371309	-0.040533	0	0	0.149928	-0.292517	-0.0845652	1.09846	-0.0592078	0	0	-0.0115657	0.149904	-0.203524	-0.354588	-0.0587098	-0.371736	0.603388	0.841757	0	0	-0.126626	-0.418361	0.517937	0.710114	0.702255	0	0
0.21	1.32642	1.38065	0.347515	0.503452	-0.231854	0.920125	0.452732	0.206635	-0.22372	0.368966	-0.0425686	0	0	0.180547	-0.297282	-0.0626546	1.14778	-0.0993711	0	0	-0.0122705	0.156019	-0.200893	-0.358943	-0.0596821	-0.372167	0.609553	0.838985	0	0	-0.1289	-0.418608	0.526642	0.70916	0.696267	0	0
0.22	1.33819	1.37848	0.333432	0.503997	-0.222303	0.920756	0.43955	0.214446	-0.220102	0.366613	-0.0436402	0	0	0.209014	-0.300049	-0.0436661	1.19221	-0.135727	0	0	-0.0135905	0.160965	-0.19633	-0.361677	-0.0603239	-0.374961	0.612508	0.844306	0	0	-0.130281	-0.416154	0.527685	0.703392	0.71096	0	0
0.23	1.3523	1.37759	0.31612	0.504476	-0.212923	0.921698	0.426155	0.221392	-0.212925	0.36633	-0.0434514	0	0	0.234373	-0.300749	-0.0268373	1.23253	-0.164281	0	0	-0.016117	0.164775	-0.189823	-0.3642	-0.0612984	-0.37549	0.615004	0.84271	0	0	-0.129186	-0.41497	0.537066	0.697785	0.706789	0	0
0.24	1.36786	1.37813	0.296339	0.504866	-0.203628	0.922976	0.41209	0.227028	-0.203126	0.36765	-0.0412411	0	0	0.256829	-0.298921	-0.0117623	1.27002	-0.175095	0	0	-0.0193457	0.167127	-0.181606	-0.367168	-0.0637467	-0.368528	0.617798	0.818924	0	0	-0.126583	-0.413597	0.549665	0.690524	0.699839	0	0
0.25	1.38691	1.38054	0.272007	0.505311	-0.194323	0.924638	0.395594	0.23111	-0.191373	0.368002	-0.0381919	0	0	0.275977	-0.295267	0.000252487	1.30406	-0.164967	0	0	-0.0238274	0.167299	-0.173204	-0.36654	-0.0645756	-0.370608	0.613835	0.822279	0	0	-0.126797	-0.411523	0.5532	0.685815	0.697249	0	0
0.26	1.40684	1.38427	0.245902	0.505782	-0.185096	0.92657	0.377288	0.233667	-0.178521	0.366281	-0.0348404	0	0	0.293309	-0.29054	0.00929158	1.3339	-0.141824	0	0	-0.0286229	0.165839	-0.164554	-0.364436	-0.065504	-0.372289	0.606874	0.824482	0	0	-0.127917	-0.409297	0.554774	0.681638	0.695044	0	0
0.27	1.42194	1.38896	0.22397	0.506299	-0.176035	0.928563	0.358741	0.234581	-0.166105	0.362582	-0.031499	0	0	0.310798	-0.284963	0.0157761	1.35924	-0.116688	0	0	-0.0328743	0.162918	-0.156298	-0.360742	-0.0663856	-0.374073	0.597129	0.82627	0	0	-0.131029	-0.407019	0.552261	0.679661	0.69306	0	0
0.28	1.42999	1.39389	0.208483	0.506892	-0.167168	0.930506	0.340669	0.234575	-0.154456	0.356781	-0.0289395	0	0	0.329582	-0.27937	0.0202932	1.38027	-0.0948192	0	0	-0.0360274	0.159327	-0.14837	-0.355618	-0.0672613	-0.376336	0.584813	0.828824	0	0	-0.136435	-0.404345	0.544265	0.680312	0.691633	0	0
0.29	1.43127	1.39859	0.199596	0.507529	-0.1585	0.93233	0.323572	0.233957	-0.14479	0.349774	-0.0267173	0	0	0.350171	-0.274151	0.0237986	1.39722	-0.0796038	0	0	-0.0381427	0.155839	-0.140782	-0.350546	-0.0682964	-0.378101	0.573264	0.831895	0	0	-0.142769	-0.401564	0.533848	0.682766	0.691604	0	0
